# xmcd
#
# Track frame offsets:
# 150
# 15440
# 38685
# 52285
# 63761
# 78587
# 89767
# 104388
# 115132
# 132086
# 144460
# 155535
# 174844
# 191541
# 211278
# 228246
# 238482
# 253099
# 266097
# 276643
# 289958
# 299887
#
# Disc length: 4251 seconds
#
#
# Revision: 0
# Processed by: cddbd v1.5.1PL2 Copyright (c) Steve Scherf et al.
# Submitted via: FreeRIP 2.944 
#
DISCID=57109916
DTITLE=Townes Van Zandt - High, Low And In Between
DYEAR=1996
DGENRE=Country
TTITLE0=Standin'
TTITLE1=Silver Ships Of Andilar
TTITLE2=When He Offers His Hand
TTITLE3=Two Hands
TTITLE4=To Live Is To Fly
TTITLE5=Snow Don't Fall
TTITLE6=No Deal
TTITLE7=Mr. Gold And Mr. Mud
TTITLE8=Honky Tonkin'
TTITLE9=Fraulein
TTITLE10=Don't Let The Sunshine Fool Ya'
TTITLE11=Sad Cinderella
TTITLE12=Poncho and Lefty
TTITLE13=No Lonesome Tune
TTITLE14=If I Needed You
TTITLE15=Highway Kind
TTITLE16=High, Low And In Between
TTITLE17=Heavenly Houseboat Blues
TTITLE18=Greensboro Woman
TTITLE19=German Mustard
TTITLE20=Blue Ridge Mountains
TTITLE21=You Are Not Needed Now
EXTD=
EXTT0=
EXTT1=
EXTT2=
EXTT3=
EXTT4=
EXTT5=
EXTT6=
EXTT7=
EXTT8=
EXTT9=
EXTT10=
EXTT11=
EXTT12=
EXTT13=
EXTT14=
EXTT15=
EXTT16=
EXTT17=
EXTT18=
EXTT19=
EXTT20=
EXTT21=
PLAYORDER=
